<?xml version="1.0" encoding="UTF-8" standalone="no"?>
<!-- Created with Inkscape (http://www.inkscape.org/) -->

<svg
   version="1.1"
   id="svg1"
   width="900"
   height="650"
   viewBox="0 0 900 650"
   sodipodi:docname="js.svg"
   xml:space="preserve"
   inkscape:version="1.3.2 (091e20e, 2023-11-25, custom)"
   xmlns:inkscape="http://www.inkscape.org/namespaces/inkscape"
   xmlns:sodipodi="http://sodipodi.sourceforge.net/DTD/sodipodi-0.dtd"
   xmlns="http://www.w3.org/2000/svg"
   xmlns:svg="http://www.w3.org/2000/svg"><defs
     id="defs1" /><sodipodi:namedview
     id="namedview1"
     pagecolor="#ffffff"
     bordercolor="#000000"
     borderopacity="0.25"
     inkscape:showpageshadow="2"
     inkscape:pageopacity="0.0"
     inkscape:pagecheckerboard="0"
     inkscape:deskcolor="#d1d1d1"
     showgrid="false"
     inkscape:export-bgcolor="#0087afff"
     inkscape:zoom="0.90846154"
     inkscape:cx="561.93903"
     inkscape:cy="375.91025"
     inkscape:window-width="2560"
     inkscape:window-height="1377"
     inkscape:window-x="-8"
     inkscape:window-y="-8"
     inkscape:window-maximized="1"
     inkscape:current-layer="g1" /><g
     inkscape:groupmode="layer"
     inkscape:label="Image"
     id="g1"
     style="fill:#decd87"><rect
       style="display:inline;fill:#e9afdd;stroke-width:7.04882"
       id="rect1"
       width="901.33661"
       height="649.14917"
       x="0"
       y="0.77835631"
       sodipodi:insensitive="true" /><g
       id="g3"
       transform="matrix(0.65404621,0,0,0.65404621,248.59018,124.20407)"
       sodipodi:insensitive="true"><rect
         width="630"
         height="630"
         fill="#f7df1e"
         id="rect1-2"
         x="0"
         y="0" /><path
         d="m 423.2,492.19 c 12.69,20.72 29.2,35.95 58.4,35.95 24.53,0 40.2,-12.26 40.2,-29.2 0,-20.3 -16.1,-27.49 -43.1,-39.3 l -14.8,-6.35 c -42.72,-18.2 -71.1,-41 -71.1,-89.2 0,-44.4 33.83,-78.2 86.7,-78.2 37.64,0 64.7,13.1 84.2,47.4 l -46.1,29.6 c -10.15,-18.2 -21.1,-25.37 -38.1,-25.37 -17.34,0 -28.33,11 -28.33,25.37 0,17.76 11,24.95 36.4,35.95 l 14.8,6.34 c 50.3,21.57 78.7,43.56 78.7,93 0,53.3 -41.87,82.5 -98.1,82.5 -54.98,0 -90.5,-26.2 -107.88,-60.54 z m -209.13,5.13 c 9.3,16.5 17.76,30.45 38.1,30.45 19.45,0 31.72,-7.61 31.72,-37.2 v -201.3 h 59.2 v 202.1 c 0,61.3 -35.94,89.2 -88.4,89.2 -47.4,0 -74.85,-24.53 -88.81,-54.075 z"
         id="path1" /></g><path
       style="fill:#1c1f24;stroke-width:2.74325"
       d="m 407.18476,503.35817 c -7.44684,-0.71826 -15.24539,-2.8146 -21.66935,-5.82498 -10.76807,-5.04608 -21.30999,-15.35433 -26.7503,-26.15734 -0.74521,-1.47979 -1.2999,-2.73943 -1.23265,-2.79921 0.17357,-0.15429 3.80683,-2.36539 18.29303,-11.13261 l 12.72226,-7.69966 1.24571,2.21327 c 7.13758,12.68149 13.85109,17.55597 24.21122,17.57905 8.78944,0.0196 14.92756,-3.2423 17.79813,-9.4582 2.6411,-5.71901 2.47606,-0.82566 2.61118,-77.41906 l 0.12204,-69.17642 h 19.06042 19.06043 l -0.008,69.56559 c -0.006,57.76108 -0.10111,70.26802 -0.55867,73.70504 -1.85435,13.92914 -6.67591,24.37557 -14.9176,32.32058 -3.95155,3.8093 -6.81949,5.83992 -11.71402,8.29398 -10.20895,5.11866 -24.35491,7.33252 -38.27423,5.98997 z"
       id="path3" /><path
       style="fill:#1c1f24;stroke-width:2.74325"
       d="m 556.33018,503.53519 c -19.2047,-1.85229 -33.92497,-7.75043 -46.37226,-18.58053 -3.64659,-3.17281 -8.68877,-8.97216 -11.46961,-13.19199 -2.21624,-3.36306 -4.28993,-7.15909 -4.03746,-7.39084 0.36632,-0.33625 29.77104,-17.35262 30.40182,-17.59339 0.44438,-0.16962 0.87442,0.17445 1.46133,1.16919 3.05848,5.18374 9.47048,12.12336 13.95824,15.10681 11.96801,7.95632 29.63209,9.01401 40.83971,2.44541 8.13097,-4.76543 11.14247,-14.5021 7.14198,-23.0912 -2.95936,-6.35381 -8.79285,-10.10593 -29.78327,-19.1567 -21.71958,-9.36518 -30.63605,-14.72638 -38.82116,-23.34201 -6.92448,-7.28869 -11.0343,-15.48719 -12.98827,-25.90973 -1.01953,-5.43815 -1.03089,-17.2739 -0.0211,-21.98856 3.00625,-14.03627 10.87128,-25.06971 23.13401,-32.45353 5.76608,-3.47195 14.09577,-6.29085 21.93587,-7.42346 5.31972,-0.7685 16.06709,-0.77531 21.87572,-0.0139 17.53373,2.29847 30.45167,10.3521 40.34522,25.15303 2.79381,4.1796 3.12164,4.84425 2.56118,5.19263 -0.35351,0.21973 -7.06968,4.52839 -14.92482,9.57481 l -14.28209,9.17529 -2.20024,-3.33762 c -5.34361,-8.10591 -11.083,-11.92226 -19.34735,-12.86483 -12.28737,-1.40141 -21.31719,4.8689 -22.12684,15.36488 -0.41103,5.32838 1.16155,10.00557 4.57903,13.61906 3.78721,4.00441 9.11168,6.91107 25.6534,14.0043 16.60194,7.11907 26.67712,12.60381 34.37796,18.71473 10.77395,8.54955 16.76559,18.26724 19.1805,31.10836 0.57729,3.06969 0.72873,5.65927 0.71692,12.25911 -0.0137,7.64635 -0.10311,8.74039 -1.03793,12.69685 -1.27206,5.38371 -3.47203,10.78609 -6.19662,15.21676 -2.79122,4.53902 -9.77765,11.6146 -14.50797,14.6931 -11.40475,7.42224 -26.11687,11.21486 -42.81638,11.0376 -3.22705,-0.0343 -6.48033,-0.12141 -7.2295,-0.19366 z"
       id="path4" /></g><g
     inkscape:groupmode="layer"
     id="layer1"
     inkscape:label="Image 1" /></svg>
